<svg viewBox="0 0 520 400" xmlns="http://www.w3.org/2000/svg" aria-label="Stylised Telford scene with the Iron Bridge and a bottle kiln and a plate and cutlery"><rect width="520" height="400" rx="6" fill="#1D2433"/><rect x="120" y="34" width="280" height="30" rx="3" fill="#2C3040"/><text x="260" y="54" text-anchor="middle" font-family="Barlow Condensed, sans-serif" font-size="15" font-weight="800" letter-spacing="3" fill="#C4793A">WHERE TO EAT IN TELFORD</text><path d="M40 300 L40 250 Q66 258 84 300 Z" fill="#222A38"/><path d="M300 300 L300 250 Q278 258 264 300 Z" fill="#222A38"/><path d="M70 250 Q185 150 300 250" fill="none" stroke="#C4793A" stroke-width="5" opacity="0.85"/><path d="M70 250 Q185 178 300 250" fill="none" stroke="#374151" stroke-width="3"/><g stroke="#C4793A" stroke-width="2" opacity="0.6"><line x1="110" y1="226" x2="110" y2="252"/><line x1="150" y1="208" x2="150" y2="252"/><line x1="185" y1="201" x2="185" y2="252"/><line x1="220" y1="208" x2="220" y2="252"/><line x1="260" y1="226" x2="260" y2="252"/></g><rect x="66" y="248" width="238" height="6" fill="#4B5563"/><path d="M360 300 L360 220 Q372 200 388 200 Q404 200 416 220 L416 300 Z" fill="#262E3D"/><path d="M372 220 Q388 206 404 220 Z" fill="#374151"/><ellipse cx="388" cy="220" rx="16" ry="5" fill="#374151"/><rect x="380" y="196" width="16" height="8" fill="#2C3040"/><rect x="0" y="300" width="520" height="58" fill="#26303F"/><path d="M0 312 q26 -6 52 0 t52 0 t52 0 t52 0 t52 0 t52 0 t52 0 t52 0 t52 0" fill="none" stroke="#C4793A" stroke-width="1.5" opacity="0.25"/><path d="M0 330 q26 -6 52 0 t52 0 t52 0 t52 0 t52 0 t52 0 t52 0 t52 0 t52 0" fill="none" stroke="#FAFAF7" stroke-width="1" opacity="0.12"/><rect x="0" y="356" width="520" height="44" fill="#1D2433"/><ellipse cx="260" cy="378" rx="62" ry="16" fill="#2C3040"/><ellipse cx="260" cy="378" rx="44" ry="10" fill="none" stroke="#C4793A" stroke-width="1.5" opacity="0.8"/><g stroke="#C4793A" stroke-width="2.4" stroke-linecap="round" opacity="0.9" fill="none"><line x1="176" y1="366" x2="176" y2="392"/><line x1="171" y1="366" x2="171" y2="376"/><line x1="181" y1="366" x2="181" y2="376"/></g><g stroke="#C4793A" stroke-width="2.4" stroke-linecap="round" opacity="0.9"><line x1="346" y1="366" x2="346" y2="392"/><path d="M346 366 q7 6 0 14" fill="none"/></g></svg>