<svg viewBox="0 0 520 400" xmlns="http://www.w3.org/2000/svg" aria-label="Stylised Leicester skyline with clock tower, cathedral spire and Space Centre and a plate and cutlery"><rect width="520" height="400" rx="6" fill="#1D2433"/><rect x="120" y="34" width="280" height="30" rx="3" fill="#2C3040"/><text x="260" y="54" text-anchor="middle" font-family="Barlow Condensed, sans-serif" font-size="15" font-weight="800" letter-spacing="3" fill="#C4793A">WHERE TO EAT IN LEICESTER</text><rect x="72" y="250" width="24" height="50" fill="#262E3D"/><rect x="64" y="196" width="40" height="54" fill="#2C3040"/><polygon points="64,196 84,160 104,196" fill="#374151"/><rect x="80" y="142" width="6" height="18" fill="#374151"/><circle cx="83" cy="142" r="3" fill="#C4793A" opacity="0.7"/><circle cx="84" cy="216" r="9" fill="#26303F" stroke="#C4793A" stroke-width="1.4" opacity="0.9"/><rect x="170" y="214" width="40" height="86" fill="#262E3D"/><polygon points="190,120 200,214 180,214" fill="#2C3040"/><polygon points="190,120 196,150 184,150" fill="#374151"/><circle cx="190" cy="116" r="3" fill="#C4793A" opacity="0.6"/><rect x="300" y="172" width="44" height="128" fill="#2C3040"/><path d="M300 172 q22 -26 44 0 Z" fill="#374151"/><circle cx="312" cy="206" r="12" fill="#262E3D" stroke="#C4793A" stroke-width="1" opacity="0.6"/><circle cx="334" cy="236" r="14" fill="#262E3D" stroke="#C4793A" stroke-width="1" opacity="0.5"/><circle cx="312" cy="262" r="11" fill="#262E3D" stroke="#C4793A" stroke-width="1" opacity="0.5"/><rect x="360" y="250" width="60" height="50" fill="#262E3D"/><rect x="368" y="260" width="7" height="9" fill="#374151"/><rect x="382" y="260" width="7" height="9" fill="#374151"/><rect x="396" y="260" width="7" height="9" fill="#374151"/><rect x="0" y="300" width="520" height="58" fill="#26303F"/><path d="M0 312 q26 -6 52 0 t52 0 t52 0 t52 0 t52 0 t52 0 t52 0 t52 0 t52 0" fill="none" stroke="#C4793A" stroke-width="1.5" opacity="0.25"/><path d="M0 330 q26 -6 52 0 t52 0 t52 0 t52 0 t52 0 t52 0 t52 0 t52 0 t52 0" fill="none" stroke="#FAFAF7" stroke-width="1" opacity="0.12"/><rect x="0" y="356" width="520" height="44" fill="#1D2433"/><ellipse cx="260" cy="378" rx="62" ry="16" fill="#2C3040"/><ellipse cx="260" cy="378" rx="44" ry="10" fill="none" stroke="#C4793A" stroke-width="1.5" opacity="0.8"/><g stroke="#C4793A" stroke-width="2.4" stroke-linecap="round" opacity="0.9" fill="none"><line x1="176" y1="366" x2="176" y2="392"/><line x1="171" y1="366" x2="171" y2="376"/><line x1="181" y1="366" x2="181" y2="376"/></g><g stroke="#C4793A" stroke-width="2.4" stroke-linecap="round" opacity="0.9"><line x1="346" y1="366" x2="346" y2="392"/><path d="M346 366 q7 6 0 14" fill="none"/></g></svg>