<svg viewBox="0 0 520 400" xmlns="http://www.w3.org/2000/svg" aria-label="Stylised Worthing seafront with pier and Dome and a plate and cutlery"><rect width="520" height="400" rx="6" fill="#1D2433"/><rect x="120" y="34" width="280" height="30" rx="3" fill="#2C3040"/><text x="260" y="54" text-anchor="middle" font-family="Barlow Condensed, sans-serif" font-size="15" font-weight="800" letter-spacing="3" fill="#C4793A">WHERE TO EAT IN WORTHING</text><rect x="70" y="220" width="90" height="80" fill="#262E3D"/><path d="M70 220 q45 -40 90 0 Z" fill="#2C3040"/><path d="M70 220 q45 -36 90 0" fill="none" stroke="#C4793A" stroke-width="1.4" opacity="0.5"/><rect x="110" y="170" width="10" height="14" fill="#374151"/><circle cx="115" cy="168" r="3" fill="#C4793A" opacity="0.7"/><rect x="84" y="244" width="10" height="20" fill="#26303F"/><rect x="104" y="244" width="10" height="20" fill="#26303F"/><rect x="124" y="244" width="10" height="20" fill="#26303F"/><rect x="240" y="288" width="200" height="6" fill="#374151"/><g stroke="#374151" stroke-width="2"><line x1="262" y1="294" x2="262" y2="300"/><line x1="300" y1="294" x2="300" y2="300"/><line x1="338" y1="294" x2="338" y2="300"/><line x1="376" y1="294" x2="376" y2="300"/><line x1="414" y1="294" x2="414" y2="300"/></g><rect x="408" y="266" width="32" height="22" fill="#2C3040"/><path d="M408 266 q16 -14 32 0 Z" fill="#374151"/><rect x="0" y="300" width="520" height="58" fill="#26303F"/><path d="M0 312 q26 -6 52 0 t52 0 t52 0 t52 0 t52 0 t52 0 t52 0 t52 0 t52 0" fill="none" stroke="#C4793A" stroke-width="1.5" opacity="0.25"/><path d="M0 330 q26 -6 52 0 t52 0 t52 0 t52 0 t52 0 t52 0 t52 0 t52 0 t52 0" fill="none" stroke="#FAFAF7" stroke-width="1" opacity="0.12"/><rect x="0" y="356" width="520" height="44" fill="#1D2433"/><ellipse cx="260" cy="378" rx="62" ry="16" fill="#2C3040"/><ellipse cx="260" cy="378" rx="44" ry="10" fill="none" stroke="#C4793A" stroke-width="1.5" opacity="0.8"/><g stroke="#C4793A" stroke-width="2.4" stroke-linecap="round" opacity="0.9" fill="none"><line x1="176" y1="366" x2="176" y2="392"/><line x1="171" y1="366" x2="171" y2="376"/><line x1="181" y1="366" x2="181" y2="376"/></g><g stroke="#C4793A" stroke-width="2.4" stroke-linecap="round" opacity="0.9"><line x1="346" y1="366" x2="346" y2="392"/><path d="M346 366 q7 6 0 14" fill="none"/></g></svg>