<svg viewBox="0 0 520 400" xmlns="http://www.w3.org/2000/svg" aria-label="Stylised Nottingham skyline with the Council House dome and castle and a plate and cutlery"><rect width="520" height="400" rx="6" fill="#1D2433"/><rect x="120" y="34" width="280" height="30" rx="3" fill="#2C3040"/><text x="260" y="54" text-anchor="middle" font-family="Barlow Condensed, sans-serif" font-size="15" font-weight="800" letter-spacing="3" fill="#C4793A">WHERE TO EAT IN NOTTINGHAM</text><rect x="150" y="232" width="150" height="68" fill="#262E3D"/><rect x="160" y="206" width="130" height="26" fill="#2C3040"/><g stroke="#26303F" stroke-width="1"><line x1="174" y1="206" x2="174" y2="232"/><line x1="190" y1="206" x2="190" y2="232"/><line x1="206" y1="206" x2="206" y2="232"/><line x1="244" y1="206" x2="244" y2="232"/><line x1="260" y1="206" x2="260" y2="232"/><line x1="276" y1="206" x2="276" y2="232"/></g><rect x="206" y="178" width="38" height="28" fill="#2C3040"/><path d="M206 178 q19 -34 38 0 Z" fill="#374151"/><rect x="222" y="140" width="6" height="20" fill="#374151"/><circle cx="225" cy="140" r="4" fill="#C4793A" opacity="0.7"/><path d="M206 178 q19 -22 38 0" fill="none" stroke="#C4793A" stroke-width="1.2" opacity="0.4"/><path d="M340 300 Q360 262 400 262 L450 262 L450 300 Z" fill="#222A38"/><rect x="372" y="226" width="64" height="40" fill="#2C3040"/><rect x="372" y="218" width="10" height="10" fill="#2C3040"/><rect x="388" y="218" width="10" height="10" fill="#2C3040"/><rect x="404" y="218" width="10" height="10" fill="#2C3040"/><rect x="420" y="218" width="10" height="10" fill="#2C3040"/><rect x="390" y="238" width="6" height="10" fill="#C4793A" opacity="0.4"/><rect x="0" y="300" width="520" height="58" fill="#26303F"/><path d="M0 312 q26 -6 52 0 t52 0 t52 0 t52 0 t52 0 t52 0 t52 0 t52 0 t52 0" fill="none" stroke="#C4793A" stroke-width="1.5" opacity="0.25"/><path d="M0 330 q26 -6 52 0 t52 0 t52 0 t52 0 t52 0 t52 0 t52 0 t52 0 t52 0" fill="none" stroke="#FAFAF7" stroke-width="1" opacity="0.12"/><rect x="0" y="356" width="520" height="44" fill="#1D2433"/><ellipse cx="260" cy="378" rx="62" ry="16" fill="#2C3040"/><ellipse cx="260" cy="378" rx="44" ry="10" fill="none" stroke="#C4793A" stroke-width="1.5" opacity="0.8"/><g stroke="#C4793A" stroke-width="2.4" stroke-linecap="round" opacity="0.9" fill="none"><line x1="176" y1="366" x2="176" y2="392"/><line x1="171" y1="366" x2="171" y2="376"/><line x1="181" y1="366" x2="181" y2="376"/></g><g stroke="#C4793A" stroke-width="2.4" stroke-linecap="round" opacity="0.9"><line x1="346" y1="366" x2="346" y2="392"/><path d="M346 366 q7 6 0 14" fill="none"/></g></svg>