<svg xmlns="http://www.w3.org/2000/svg" viewBox="0 0 460 420" width="460" height="420" role="img" aria-label="EN ISO 13688 — PROTECTIVE CLOTHING BASICS">
<path d="M26,60 v-24 q0,-10 10,-10 h24 M434,60 v-24 q0,-10 -10,-10 h-24 M26,360 v24 q0,10 10,10 h24 M434,360 v24 q0,10 -10,10 h-24" fill="none" stroke="#E4571F" stroke-width="5" stroke-linecap="round"/>
<circle cx="230" cy="145" r="104" fill="none" stroke="rgba(231,235,241,.14)" stroke-width="2" stroke-dasharray="3 10"/>
<g transform="rotate(12 230 145)"><rect x="185" y="88" width="90" height="118" rx="10" fill="none" stroke="#E7EBF1" stroke-width="5" stroke-linecap="round" stroke-linejoin="round"/><circle cx="230" cy="112" r="7" fill="none" stroke="#E7EBF1" stroke-width="5" stroke-linecap="round" stroke-linejoin="round"/><path fill="none" stroke="#E7EBF1" stroke-width="5" stroke-linecap="round" stroke-linejoin="round" d="M205,140 h50 M205,160 h50 M205,180 h30"/></g><path fill="none" stroke="#E4571F" stroke-width="5" stroke-linecap="round" stroke-linejoin="round" d="M230,74 q-24,-16 -44,4"/>
<path d="M180,268 h100" stroke="#E4571F" stroke-width="4" stroke-linecap="round"/>
<text x="230" y="330" text-anchor="middle" font-family="'Barlow Condensed','Arial Narrow',Arial,sans-serif" font-weight="bold" font-size="56" letter-spacing="1" fill="#FFFFFF">EN ISO 13688</text>
<text x="230" y="366" text-anchor="middle" font-family="Menlo,Consolas,monospace" font-size="15" letter-spacing="4" fill="#C6D92E">PROTECTIVE CLOTHING BASICS</text>
</svg>